<svg width="30" height="30" viewBox="0 0 30 30" fill="none" xmlns="http://www.w3.org/2000/svg">
<rect width="30" height="30" rx="5" fill="#089576"/>
<path d="M15 16.4875C13.6193 16.4875 12.5 17.6068 12.5 18.9875V23.9875H17.5V18.9875C17.5 17.6068 16.3807 16.4875 15 16.4875Z" fill="black"/>
<path d="M19.1667 18.9875V23.9875H22.5C23.8807 23.9875 25 22.8683 25 21.4875V13.8867C25.0002 13.4538 24.832 13.0378 24.5308 12.7267L17.4492 5.07087C16.1996 3.71891 14.0907 3.63591 12.7388 4.88544C12.6746 4.94481 12.6127 5.00665 12.5534 5.07087L5.48418 12.7242C5.17395 13.0366 4.99988 13.459 5 13.8992V21.4875C5 22.8683 6.1193 23.9875 7.5 23.9875H10.8333V18.9875C10.8489 16.7152 12.6836 14.8596 14.8987 14.8061C17.1879 14.7509 19.1492 16.6381 19.1667 18.9875Z" fill="white"/>
<path d="M15 16.4875C13.6193 16.4875 12.5 17.6068 12.5 18.9875V23.9875H17.5V18.9875C17.5 17.6068 16.3807 16.4875 15 16.4875Z" fill="white"/>
</svg>
